<svg xmlns="http://www.w3.org/2000/svg" viewBox="0 0 64 64" style="--mk-sw:3.4; --sm-ink:#29292d; --sm-stone:#f1f1f2; --sm-lead:#7d7d83; --mk-iron:#b5b5ba; --sm-timber:#b5b5ba; --sm-void:#55555b; --mk-lava:#c23a3a; --mk-ember:#e05252; --mk-steam:#b5b5ba; --mk-heat:#e05252; --mk-water:#7d7d83; --mk-water-light:#b5b5ba; --sm-canopy-a:#55555b; --sm-canopy-b:#7d7d83; --mk-pine:#46464c; --mk-flame:#f06a6a; --mk-gold:#f06a6a; --mk-brass:#e05252; --mk-halo:#f06a6a; --mk-arcane:#7d7d83; --mk-arcane-light:#b5b5ba; --mk-page:#f1f1f2; --mk-board-a:#c23a3a; --mk-board-b:#66666d; --mk-party:#c23a3a; --mk-white:#ffffff; --mk-sand:#b5b5ba; --mk-hide:#66666d; --mk-hide-dark:#55555b; --mk-skin:#7d7d83; --mk-froth:#f1f1f2; --mk-black:#29292d;" fill="none" stroke="var(--sm-ink, #29292d)" stroke-width="var(--mk-sw, 3.4)" stroke-linejoin="round" stroke-linecap="round">
  <g id="mk-hill-monsters">
    <path d="M50,10 L40,32" fill="none" stroke="var(--sm-timber, #b5b5ba)" stroke-width="3.4"></path>
    <path d="M59.38,10.69 Q58.72,12.38 57.13,13.32 Q55.54,14.27 53.77,15.01 Q52,15.74 50.27,14.93 Q48.54,14.12 46.81,13.31 Q45.08,12.49 44.89,10.75 Q44.7,9 45,7.32 Q45.31,5.64 46.82,4.58 Q48.34,3.53 50.17,3.36 Q52,3.19 53.82,3.37 Q55.64,3.56 57.31,4.52 Q58.97,5.48 59.51,7.24 Q60.05,9 59.38,10.69 Z" fill="var(--sm-timber, #b5b5ba)" stroke-width="3.4"></path>
    <path d="M11.08,57.86 L13.27,49.35 L14.58,40.24 L15.99,30.06 L21.14,27.71 L26.8,24.96 L32.45,21.23 L36.78,25.18 L43.07,28.09 L47.32,30.35 L49.61,38.74 L50.92,48.46 L52.33,58.07 L38.37,57.4 L24.82,57.28 Z" fill="var(--mk-skin, #7d7d83)" stroke-width="3.4"></path>
    <path d="M43.67,18.5 Q43.32,21 41.06,22.65 Q38.8,24.3 36.13,25.2 Q33.46,26.1 30.44,26.1 Q27.42,26.1 25.1,24.45 Q22.78,22.8 21.53,20.61 Q20.29,18.43 20.8,16.13 Q21.31,13.82 22.16,11.61 Q23.01,9.41 25.36,8.04 Q27.72,6.68 30.53,6.78 Q33.34,6.89 35.76,7.74 Q38.18,8.6 40.49,9.94 Q42.8,11.27 43.42,13.63 Q44.03,16 43.67,18.5 Z" fill="var(--mk-skin, #7d7d83)" stroke-width="3.4"></path>
    <circle cx="27" cy="15" r="2.2" fill="var(--sm-void, #55555b)" stroke="none"></circle><circle cx="37" cy="15" r="2.2" fill="var(--sm-void, #55555b)" stroke="none"></circle>
    <path d="M27,22 L29,26 L25,26 Z M37,22 L39,26 L35,26 Z" fill="var(--mk-page, #f1f1f2)" stroke-width="1.3"></path>
  </g>
</svg>